<svg width="384" height="40" viewBox="0 0 384 40" fill="none" xmlns="http://www.w3.org/2000/svg">
<g clip-path="url(#clip0_6078_123)">
<path d="M25.0222 3.68216C24.2247 6.3986 22.3831 7.84911 19.4921 8.02846C18.622 8.08301 17.7258 8.14541 16.8089 8.22076L8.58281 8.20781C8.50739 8.20781 8.44765 8.2676 8.44516 8.34033L8.40359 10.2041L8.35954 16.4377C8.35954 16.5104 8.31013 16.5728 8.24006 16.5936C4.87111 17.5372 2.22946 19.7312 0.284009 22.5308C0.237215 22.5984 0.133421 22.5647 0.133421 22.4841L0.0866263 10.984C0.0736832 8.01551 0.0710697 5.04163 0.0787858 2.06264C0.0813993 0.877295 0.356814 0.0662255 1.63993 0.0585034C7.16989 0.0299815 11.8661 0.0195193 15.7285 0.0273659C19.3391 0.035088 22.4378 1.25431 25.0223 3.68216H25.0222Z" fill="#0B223F"/>
<path d="M24.8401 0.0483043C25.9518 0.089904 30.5285 0.0820574 38.5729 0.0275044C40.6899 0.0119357 42.2561 0.133995 43.2665 0.396546C49.9732 2.11995 54.4538 8.05986 53.2435 15.1512C52.6253 18.7827 50.8226 21.6057 47.8355 23.6255C47.7083 23.7113 47.1472 24.0674 46.1524 24.6965C46.0901 24.7355 46.0744 24.8213 46.116 24.881C48.9862 29.0584 51.9708 33.5529 55.0747 38.3697C55.2123 38.5802 55.2462 38.8038 55.1786 39.0431C54.9811 39.7346 54.3837 39.9893 53.5916 39.9814C51.8954 39.9632 49.5681 39.9554 46.6096 39.9606C46.1212 39.9632 45.7083 39.6954 45.3732 39.1626C42.716 34.9333 40.0743 30.709 37.2483 26.7318C37.186 26.646 37.0847 26.594 36.9782 26.594L31.5132 26.6096C31.4404 26.6096 31.3911 26.6823 31.417 26.75C31.4351 26.7942 31.43 30.6362 31.4014 38.2787C31.3962 39.4043 30.7805 39.9657 29.5545 39.9631C26.7882 39.9605 25.1492 39.9631 24.6401 39.9762C23.4271 40.0047 22.7258 39.555 22.7258 38.3332C22.7205 33.7061 22.7154 30.228 22.7102 27.8989C22.7102 27.8157 22.757 27.7404 22.8297 27.704C26.9363 25.6504 29.8532 23.0224 31.4767 18.6033C31.5104 18.5122 31.5988 18.4498 31.6975 18.4498C32.4897 18.442 35.1964 18.4238 39.8146 18.39C40.6432 18.3848 41.3808 18.221 42.0276 17.8961C46.2537 15.7698 46.4589 10.0742 41.5705 8.37933C41.0147 8.18703 40.1861 8.0986 39.0822 8.11417C36.4302 8.15315 33.908 8.15053 31.5158 8.10893C31.3858 8.10632 31.2691 8.02835 31.2196 7.90617C30.1417 5.27804 28.4871 3.10227 26.2559 1.37887C25.8273 1.04607 25.3337 0.658849 24.7779 0.21433C24.7078 0.157037 24.7494 0.0426995 24.8402 0.0479306L24.8401 0.0483043Z" fill="#ED6F00"/>
<path d="M80.4773 23.6749C80.4852 23.758 80.5994 23.7763 80.6306 23.6984C80.8696 23.1187 80.976 22.1673 81.1423 21.5303C82.9502 14.6183 84.6125 7.7557 86.132 0.942443C86.2125 0.583739 86.5606 0.295156 87.1788 0.07682C87.241 0.0534046 87.3059 0.0456825 87.3709 0.0482981C87.5657 0.0612513 89.6618 0.0509136 93.662 0.0222671C94.3555 0.017036 94.818 0.149682 95.1867 0.718875C95.5322 1.2517 94.9815 2.45274 94.779 3.20925C90.9346 17.6077 87.6593 29.6121 84.95 39.2172C84.8124 39.7007 84.4021 39.945 83.7137 39.9477C79.8019 39.9607 77.8149 39.9658 77.7525 39.9658C76.5915 39.945 76.459 39.1107 76.168 37.9981C74.1628 30.3426 72.2043 23.0874 70.2899 16.23C70.2587 16.1156 70.0952 16.1156 70.0639 16.2326C68.5002 22.3934 66.5755 29.9397 64.2872 38.8714C64.1106 39.5603 63.6352 39.9139 62.8638 39.9347C61.6352 39.9686 60.5156 39.9737 59.5027 39.9503C59.2196 39.945 58.9598 39.7943 58.8117 39.5551C57.9922 38.2378 57.1444 36.8933 56.2764 35.5336L59.9668 23.7823L59.9338 23.7427C59.9699 23.7263 60.0001 23.6952 60.0144 23.6515C60.365 22.5389 60.6742 21.4471 60.9444 20.3787C61.6379 17.6363 63.3106 11.2051 65.9601 1.08792C66.1496 0.370384 66.7056 0.0142959 67.6329 0.019527C69.6042 0.0324802 71.3082 0.0324802 72.7499 0.0221426C73.5967 0.0169115 74.1109 0.430293 74.2953 1.26465C74.4512 1.97434 74.6148 2.63196 74.7863 3.23765C78.0903 14.8599 79.8903 21.2234 80.189 22.3308C80.3605 22.9729 80.4565 23.4226 80.4773 23.6748V23.6749Z" fill="#ED6F00"/>
<path fill-rule="evenodd" clip-rule="evenodd" d="M59.968 23.7824L56.2776 35.5337C55.5166 34.3416 54.7399 33.1377 53.9528 31.9303C52.735 30.0626 51.4789 28.1653 50.1842 26.238C50.0103 25.9807 49.9037 25.7468 49.8674 25.5388C49.8492 25.4453 49.8856 25.3516 49.9582 25.2944C53.4933 22.5051 55.4779 18.9257 55.9091 14.556C56.1611 12.0033 55.8363 9.58059 54.9376 7.29049C53.818 4.44141 51.7816 2.16177 49.1738 0.253662C49.1037 0.2016 49.1401 0.0872628 49.2283 0.0898784C50.0101 0.102956 51.0518 0.0769252 52.3531 0.0119101C53.5049 -0.0457566 54.2342 0.0683312 54.5901 1.26887L56.4979 9.51296C56.9272 11.4906 57.4242 13.8007 58.0462 16.6418C58.2522 17.5824 58.7933 19.8917 59.6364 23.4151C59.6702 23.5529 59.7116 23.6516 59.7611 23.7062C59.7693 23.7153 59.7782 23.723 59.7877 23.7296C59.824 23.748 59.8854 23.7556 59.9349 23.7428L59.9679 23.7824H59.968Z" fill="#0B223F"/>
<path d="M25.022 3.68231C26.8532 5.26534 28.1129 6.98364 28.8013 8.8423C30.7442 14.0672 29.2402 19.5911 25.0634 23.2018C22.2763 25.6088 19.0165 26.7891 15.2788 26.7423C12.8242 26.7085 10.6397 26.7163 8.72532 26.7657C8.59017 26.7708 8.48376 26.88 8.48376 27.0151L8.49932 38.7285C8.49932 38.7519 8.4967 38.7778 8.49148 38.8013C8.27592 39.5993 7.72783 39.9867 6.84471 39.9659C6.62393 39.9608 5.00305 39.9711 1.98219 39.9997C0.631501 40.0127 -0.0152827 39.5786 0.000273972 38.2425C0.0236712 36.2357 0.0340008 33.2489 0.0340008 29.2847C0.0340008 27.998 0.649547 26.2043 1.37947 24.9305C3.36387 21.4681 7.07569 18.5305 11.2733 18.541C12.7876 18.5436 14.3357 18.5254 15.915 18.4865C18.9409 18.4111 21.3099 16.4537 21.3775 13.3707C21.4164 11.668 20.6631 10.2487 19.1177 9.10759C18.7047 8.80344 17.9359 8.50713 16.8086 8.22116C17.7254 8.14581 18.6216 8.08341 19.4918 8.02886C22.3827 7.84938 24.2244 6.39887 25.0219 3.68244L25.022 3.68231Z" fill="#ED6F00"/>
<path d="M106 32.39V8.03374H128.207V10.7739H108.738V18.8249H124.388V21.5988H108.738V29.6498H128.207V32.39H106ZM131.304 32.39V8.03374H135.056L145.162 20.0765L155.269 8.03374H159.021V32.39H156.283V11.1461L145.162 24.3727L134.042 11.1461V32.39H131.304ZM163.232 32.39V8.03374H182.466C183.209 8.03374 183.891 8.21404 184.51 8.57502C185.13 8.93599 185.62 9.42649 185.981 10.0465C186.341 10.6665 186.522 11.3489 186.522 12.093V17.2686C186.522 17.5842 186.482 17.8944 186.403 18.1988C186.324 18.5031 186.218 18.7908 186.082 19.0615C186.578 19.8055 186.95 20.4484 187.198 20.9897C187.446 21.531 187.57 22.0835 187.57 22.6473V28.3304C187.57 29.0745 187.389 29.7569 187.029 30.3769C186.668 30.9972 186.178 31.4877 185.558 31.8483C184.939 32.2093 184.257 32.3896 183.514 32.3896H163.233L163.232 32.39ZM167.289 29.6498H183.513C183.874 29.6498 184.183 29.5203 184.443 29.2609C184.702 29.0015 184.831 28.6914 184.831 28.3307V22.6476C184.831 22.2867 184.702 21.9768 184.443 21.7174C184.183 21.458 183.874 21.3285 183.513 21.3285H167.289C166.928 21.3285 166.618 21.458 166.359 21.7174C166.1 21.9768 165.97 22.287 165.97 22.6476V28.3307C165.97 28.6917 166.1 29.0015 166.359 29.2609C166.618 29.5203 166.928 29.6498 167.289 29.6498ZM167.289 18.588H182.465C182.826 18.588 183.13 18.4585 183.378 18.1991C183.626 17.9397 183.75 17.6295 183.75 17.2689V12.0934C183.75 11.7324 183.626 11.4226 183.378 11.1632C183.13 10.9038 182.826 10.7743 182.465 10.7743H167.289C166.928 10.7743 166.618 10.9038 166.359 11.1632C166.1 11.4226 165.97 11.7327 165.97 12.0934V17.2689C165.97 17.6299 166.1 17.9397 166.359 18.1991C166.618 18.4585 166.928 18.588 167.289 18.588ZM191.781 32.39V12.0934C191.781 11.3493 191.961 10.6669 192.322 10.0469C192.682 9.42649 193.173 8.93599 193.792 8.57538C194.412 8.2144 195.093 8.0341 195.837 8.0341H212.062C212.805 8.0341 213.487 8.2144 214.107 8.57538C214.726 8.93636 215.216 9.42685 215.577 10.0469C215.938 10.6669 216.118 11.3493 216.118 12.0934V32.39H213.38V23.4933H194.519V32.39H191.781H191.781ZM194.519 20.7531H213.38V12.0934C213.38 11.7324 213.251 11.4226 212.991 11.1632C212.732 10.9038 212.422 10.7743 212.062 10.7743H195.837C195.477 10.7743 195.167 10.9038 194.908 11.1632C194.649 11.4226 194.519 11.7327 194.519 12.0934V20.7531H194.519ZM220.465 32.39V8H223.203V29.6498H244.802V32.39H220.465ZM247.29 32.39V12.0934C247.29 11.3493 247.47 10.6669 247.83 10.0469C248.191 9.42649 248.681 8.93599 249.301 8.57538C249.921 8.2144 250.602 8.0341 251.346 8.0341H267.57C268.314 8.0341 268.996 8.2144 269.615 8.57538C270.235 8.93636 270.725 9.42685 271.086 10.0469C271.446 10.6669 271.626 11.3493 271.626 12.0934V32.39H268.888V23.4933H250.027V32.39H247.289H247.29ZM250.028 20.7531H268.889V12.0934C268.889 11.7324 268.759 11.4226 268.5 11.1632C268.241 10.9038 267.931 10.7743 267.571 10.7743H251.346C250.985 10.7743 250.676 10.9038 250.417 11.1632C250.157 11.4226 250.028 11.7327 250.028 12.0934V20.7531H250.028ZM279.996 32.39C279.253 32.39 278.571 32.2097 277.951 31.8487C277.331 31.4877 276.841 30.9973 276.481 30.3772C276.12 29.7572 275.94 29.0748 275.94 28.3307V12.0934C275.94 11.3493 276.12 10.6669 276.481 10.0469C276.841 9.42649 277.332 8.93599 277.951 8.57538C278.571 8.2144 279.253 8.0341 279.996 8.0341H296.221C296.964 8.0341 297.646 8.2144 298.266 8.57538C298.885 8.93636 299.376 9.42685 299.736 10.0469C300.097 10.6669 300.277 11.3493 300.277 12.0934V13.0743H297.539V12.0934C297.539 11.7324 297.409 11.4226 297.15 11.1632C296.891 10.9038 296.581 10.7743 296.221 10.7743H279.996C279.635 10.7743 279.326 10.9038 279.067 11.1632C278.807 11.4226 278.678 11.7327 278.678 12.0934V28.3307C278.678 28.6917 278.807 29.0015 279.067 29.2609C279.326 29.5203 279.636 29.6498 279.996 29.6498H296.221C296.581 29.6498 296.891 29.5203 297.15 29.2609C297.409 29.0015 297.539 28.6914 297.539 28.3307V22.3095H291.522V19.5356H300.276V28.3307C300.276 29.0748 300.096 29.7572 299.736 30.3772C299.375 30.9976 298.885 31.4881 298.265 31.8487C297.646 32.2097 296.964 32.39 296.22 32.39H279.996H279.996ZM304.522 32.39V8.03374H326.73V10.7739H307.26V18.8249H322.911V21.5988H307.26V29.6498H326.73V32.39H304.522ZM330.806 32.39V8.03374H334.558L352.406 29.2776V8.03374H355.144V32.39H351.392L333.544 11.1461V32.39H330.806ZM363.276 32.39C362.532 32.39 361.851 32.2097 361.231 31.8487C360.611 31.4877 360.121 30.9973 359.761 30.3772C359.4 29.7572 359.22 29.0748 359.22 28.3307V27.3835H361.958V28.3307C361.958 28.6917 362.087 29.0015 362.346 29.2609C362.606 29.5203 362.916 29.6498 363.276 29.6498H379.501C379.861 29.6498 380.171 29.5203 380.43 29.2609C380.689 29.0015 380.819 28.6914 380.819 28.3307V22.8845C380.819 22.5236 380.689 22.2192 380.43 21.971C380.171 21.7229 379.861 21.5988 379.501 21.5988H363.276C362.532 21.5988 361.851 21.4127 361.231 21.0405C360.611 20.6682 360.121 20.1778 359.761 19.569C359.4 18.9602 359.22 18.2836 359.22 17.5392V12.093C359.22 11.3489 359.4 10.6665 359.761 10.0465C360.121 9.42612 360.612 8.93563 361.231 8.57502C361.851 8.21404 362.532 8.03374 363.276 8.03374H379.501C380.244 8.03374 380.926 8.21404 381.546 8.57502C382.165 8.93599 382.655 9.42649 383.016 10.0465C383.377 10.6665 383.557 11.3489 383.557 12.093V13.0402H380.819V12.093C380.819 11.732 380.689 11.4222 380.43 11.1628C380.171 10.9034 379.861 10.7739 379.501 10.7739H363.276C362.915 10.7739 362.606 10.9034 362.346 11.1628C362.087 11.4222 361.958 11.7324 361.958 12.093V17.5392C361.958 17.9002 362.087 18.2046 362.346 18.4527C362.606 18.7009 362.916 18.8249 363.276 18.8249H379.501C380.244 18.8249 380.926 19.011 381.546 19.3833C382.165 19.7555 382.655 20.246 383.016 20.8547C383.377 21.4635 383.557 22.1401 383.557 22.8845V28.3307C383.557 29.0748 383.377 29.7572 383.016 30.3772C382.655 30.9976 382.165 31.4881 381.546 31.8487C380.926 32.2097 380.244 32.39 379.501 32.39H363.276Z" fill="#0B223F"/>
</g>
<defs>
<clipPath id="clip0_6078_123">
<rect width="384" height="40" fill="white"/>
</clipPath>
</defs>
</svg>
