<svg width="512" height="513" viewBox="0 0 512 513" fill="none" xmlns="http://www.w3.org/2000/svg">
<g clip-path="url(#clip0_6094_6)">
<path d="M134.447 169.77C130.162 184.355 120.267 192.143 104.733 193.106C100.057 193.399 95.2424 193.734 90.3155 194.139L46.1148 194.069C45.7096 194.069 45.3887 194.39 45.3747 194.781L45.1511 204.788L44.9144 238.256C44.9144 238.647 44.6487 238.982 44.2721 239.093C26.17 244.16 11.9759 255.939 1.52243 270.97C1.27122 271.333 0.713131 271.152 0.713131 270.719L0.46193 208.974C0.392224 193.036 0.378207 177.069 0.419849 161.075C0.433428 154.71 1.9135 150.356 8.80798 150.314C38.5218 150.161 63.756 150.105 84.5096 150.147C103.909 150.189 120.56 156.734 134.447 169.77V169.77Z" fill="#F9F9F9"/>
<path d="M133.47 150.259C139.444 150.482 164.035 150.44 207.26 150.148C218.634 150.064 227.051 150.72 232.48 152.129C268.516 161.383 292.591 193.274 286.087 231.348C282.765 250.846 273.08 266.002 257.029 276.847C256.345 277.307 253.33 279.22 247.985 282.597C247.65 282.807 247.566 283.267 247.789 283.588C263.211 306.017 279.248 330.148 295.926 356.01C296.666 357.14 296.848 358.34 296.485 359.624C295.424 363.337 292.214 364.705 287.957 364.663C278.843 364.565 266.338 364.523 250.441 364.551C247.817 364.565 245.599 363.127 243.798 360.267C229.52 337.559 215.326 314.879 200.141 293.525C199.806 293.065 199.262 292.785 198.69 292.785L169.325 292.869C168.934 292.869 168.669 293.26 168.808 293.623C168.906 293.86 168.878 314.488 168.725 355.521C168.697 361.564 165.389 364.579 158.801 364.565C143.937 364.551 135.13 364.565 132.395 364.635C125.877 364.789 122.109 362.374 122.109 355.814C122.081 330.971 122.053 312.297 122.025 299.792C122.025 299.345 122.277 298.94 122.668 298.745C144.733 287.719 160.407 273.609 169.13 249.882C169.311 249.393 169.786 249.059 170.316 249.059C174.573 249.016 189.116 248.919 213.931 248.738C218.383 248.71 222.347 247.831 225.822 246.086C248.53 234.669 249.632 204.09 223.366 194.99C220.379 193.957 215.927 193.483 209.995 193.566C195.745 193.776 182.194 193.762 169.339 193.538C168.641 193.524 168.014 193.106 167.748 192.45C161.956 178.339 153.066 166.658 141.077 157.404C138.774 155.618 136.123 153.538 133.136 151.152C132.759 150.844 132.982 150.23 133.471 150.259L133.47 150.259Z" fill="#F9F9F9"/>
<path d="M432.424 277.112C432.466 277.558 433.08 277.656 433.248 277.238C434.532 274.125 435.104 269.017 435.997 265.598C445.711 228.487 454.643 191.641 462.808 155.06C463.241 153.134 465.111 151.585 468.433 150.413C468.767 150.287 469.117 150.246 469.465 150.26C470.512 150.329 481.775 150.274 503.268 150.12C506.995 150.092 509.479 150.804 511.461 153.86C513.317 156.721 510.358 163.169 509.27 167.231C488.614 244.537 471.014 308.99 456.457 360.56C455.718 363.156 453.513 364.468 449.814 364.482C428.795 364.552 418.118 364.579 417.784 364.579C411.545 364.468 410.833 359.988 409.27 354.014C398.495 312.912 387.972 273.958 377.686 237.14C377.518 236.526 376.639 236.526 376.472 237.154C368.069 270.232 357.727 310.748 345.432 358.703C344.482 362.402 341.928 364.3 337.783 364.412C331.182 364.593 325.166 364.621 319.723 364.496C318.202 364.468 316.806 363.658 316.011 362.374C311.607 355.302 307.052 348.083 302.388 340.783C310.666 314.444 320.671 286.281 327.469 259.415C331.196 244.691 340.184 210.162 354.42 155.842C355.439 151.99 358.425 150.078 363.408 150.106C374.001 150.176 383.157 150.176 390.903 150.12C395.453 150.092 398.216 152.311 399.207 156.791C400.044 160.601 400.923 164.132 401.845 167.384C419.597 229.785 429.27 263.951 430.874 269.897C431.796 273.344 432.312 275.759 432.424 277.113L432.424 277.112Z" fill="#F9F9F9"/>
<path fill-rule="evenodd" clip-rule="evenodd" d="M294.035 327.803C291.734 324.236 291.865 324.455 289.895 321.436C283.352 311.408 276.603 301.221 269.645 290.873C268.711 289.492 268.138 288.236 267.943 287.119C267.845 286.616 268.04 286.114 268.431 285.807C287.426 270.831 298.09 251.613 300.407 228.151C301.76 214.446 300.016 201.438 295.187 189.142C289.171 173.846 278.229 161.606 264.217 151.361C263.84 151.082 264.035 150.468 264.51 150.482C268.711 150.552 274.307 150.412 281.3 150.063C287.489 149.754 291.407 150.366 293.32 156.811L303.57 201.074C305.878 211.692 308.548 224.095 311.89 239.35C312.673 242.921 313.543 246.734 316.064 257.36L294.035 327.802L294.035 327.803Z" fill="#F9F9F9"/>
<path d="M143.436 178.714C148.543 184.646 152.316 190.896 154.755 197.475C165.194 225.528 157.113 255.186 134.67 274.572C119.695 287.496 102.179 293.832 82.0956 293.581C68.9064 293.4 57.1688 293.441 46.8827 293.706C46.1567 293.734 45.5845 294.321 45.5845 295.046L45.6683 357.936C45.6683 358.062 45.6542 358.201 45.6262 358.327C44.4679 362.611 41.5227 364.691 36.7777 364.579C35.5914 364.552 26.8823 364.608 10.6505 364.761C3.39257 364.831 -0.0822593 362.5 0.00147744 355.326C0.126856 344.551 0.18253 328.515 0.18253 307.231C0.18253 300.322 3.49034 290.692 7.41194 283.854C18.075 265.263 38.0193 249.492 60.5734 249.548C68.7104 249.562 77.0284 249.464 85.5143 249.255C101.774 248.85 114.503 238.34 114.866 221.788C115.018 215.153 112.927 209.321 108.595 204.278C117.375 203.265 124.811 200.363 130.905 195.575C136.35 191.296 140.526 185.675 143.436 178.715L143.436 178.714Z" fill="#F9F9F9"/>
</g>
<defs>
<clipPath id="clip0_6094_6">
<rect width="512" height="512" fill="white" transform="translate(0 0.573639)"/>
</clipPath>
</defs>
</svg>
