<svg width="39" height="39" viewBox="0 0 39 39" fill="none" xmlns="http://www.w3.org/2000/svg">
<path d="M27.2002 3.7998H11.2002C6.78191 3.7998 3.2002 7.38153 3.2002 11.7998V27.7998C3.2002 32.2181 6.78191 35.7999 11.2002 35.7999H27.2002C31.6185 35.7999 35.2002 32.2181 35.2002 27.7998V11.7998C35.2002 7.38153 31.6185 3.7998 27.2002 3.7998Z" stroke="#0B223F" stroke-width="2" stroke-linecap="round" stroke-linejoin="round"/>
<path d="M25.5999 18.7921C25.7974 20.1236 25.5699 21.4836 24.9499 22.6785C24.3299 23.8734 23.3489 24.8423 22.1465 25.4475C20.9441 26.0528 19.5814 26.2634 18.2524 26.0496C16.9233 25.8357 15.6955 25.2082 14.7437 24.2563C13.7918 23.3044 13.1643 22.0767 12.9504 20.7476C12.7366 19.4185 12.9472 18.0559 13.5524 16.8534C14.1577 15.651 15.1266 14.67 16.3215 14.05C17.5164 13.43 18.8763 13.2026 20.2079 13.4C21.5662 13.6015 22.8237 14.2344 23.7946 15.2053C24.7656 16.1763 25.3985 17.4338 25.5999 18.7921Z" stroke="#0B223F" stroke-width="2" stroke-linecap="round" stroke-linejoin="round"/>
<path d="M28 10.9998H28.016" stroke="#0B223F" stroke-width="2" stroke-linecap="round" stroke-linejoin="round"/>
</svg>
