<svg width="333" height="40" viewBox="0 0 333 40" fill="none" xmlns="http://www.w3.org/2000/svg">
<path d="M91.9219 30.7703V9.64889H111.18V12.0251H94.2962V19.0069H107.868V21.4123H94.2962V28.3941H111.18V30.7703H91.9219ZM113.865 30.7703V9.64889H117.119L125.883 20.0923L134.647 9.64889H137.901V30.7703H135.527V12.3479L125.883 23.8178L116.239 12.3479V30.7703H113.865ZM141.553 30.7703V9.64889H158.232C158.877 9.64889 159.468 9.80524 160.005 10.1183C160.543 10.4313 160.968 10.8567 161.28 11.3943C161.593 11.932 161.749 12.5238 161.749 13.169V17.6572C161.749 17.9309 161.715 18.1999 161.647 18.4639C161.578 18.7278 161.485 18.9773 161.368 19.212C161.798 19.8572 162.12 20.4147 162.336 20.8841C162.551 21.3535 162.658 21.8327 162.658 22.3216V27.2499C162.658 27.8951 162.502 28.4869 162.189 29.0246C161.876 29.5625 161.451 29.9879 160.914 30.3006C160.377 30.6137 159.785 30.77 159.141 30.77H141.553L141.553 30.7703ZM145.071 28.3941H159.14C159.453 28.3941 159.722 28.2818 159.946 28.0568C160.171 27.8319 160.283 27.5629 160.283 27.2502V22.3219C160.283 22.0088 160.171 21.7402 159.946 21.5152C159.722 21.2903 159.453 21.178 159.14 21.178H145.071C144.758 21.178 144.489 21.2903 144.264 21.5152C144.04 21.7402 143.928 22.0092 143.928 22.3219V27.2502C143.928 27.5632 144.04 27.8319 144.264 28.0568C144.489 28.2818 144.758 28.3941 145.071 28.3941ZM145.071 18.8014H158.232C158.544 18.8014 158.808 18.6891 159.023 18.4642C159.238 18.2392 159.346 17.9702 159.346 17.6575V13.1693C159.346 12.8563 159.238 12.5876 159.023 12.3627C158.808 12.1377 158.544 12.0254 158.232 12.0254H145.071C144.758 12.0254 144.489 12.1377 144.264 12.3627C144.04 12.5876 143.928 12.8566 143.928 13.1693V17.6575C143.928 17.9705 144.04 18.2392 144.264 18.4642C144.489 18.6891 144.758 18.8014 145.071 18.8014ZM166.31 30.7703V13.1693C166.31 12.5241 166.466 11.9323 166.779 11.3946C167.092 10.8567 167.517 10.4313 168.054 10.1186C168.592 9.80556 169.183 9.6492 169.827 9.6492H183.897C184.542 9.6492 185.133 9.80556 185.671 10.1186C186.208 10.4316 186.633 10.857 186.946 11.3946C187.258 11.9323 187.415 12.5241 187.415 13.1693V30.7703H185.04V23.0552H168.684V30.7703H166.31H166.31ZM168.684 20.679H185.041V13.1693C185.041 12.8563 184.928 12.5876 184.704 12.3627C184.479 12.1377 184.21 12.0254 183.898 12.0254H169.828C169.515 12.0254 169.246 12.1377 169.022 12.3627C168.797 12.5876 168.685 12.8566 168.685 13.1693V20.679H168.684ZM191.184 30.7703V9.61963H193.559V28.3941H212.289V30.7703H191.184ZM214.446 30.7703V13.1693C214.446 12.5241 214.603 11.9323 214.915 11.3946C215.228 10.8567 215.653 10.4313 216.191 10.1186C216.728 9.80556 217.319 9.6492 217.964 9.6492H232.034C232.678 9.6492 233.27 9.80556 233.807 10.1186C234.344 10.4316 234.769 10.857 235.082 11.3946C235.395 11.9323 235.551 12.5241 235.551 13.1693V30.7703H233.177V23.0552H216.821V30.7703H214.446H214.446ZM216.821 20.679H233.177V13.1693C233.177 12.8563 233.065 12.5876 232.84 12.3627C232.615 12.1377 232.346 12.0254 232.034 12.0254H217.964C217.651 12.0254 217.383 12.1377 217.158 12.3627C216.933 12.5876 216.821 12.8566 216.821 13.1693V20.679H216.821ZM242.809 30.7703C242.164 30.7703 241.573 30.614 241.036 30.3009C240.498 29.9879 240.073 29.5626 239.761 29.0249C239.448 28.4872 239.292 27.8954 239.292 27.2502V13.1693C239.292 12.5241 239.448 11.9323 239.761 11.3946C240.073 10.8567 240.498 10.4313 241.036 10.1186C241.573 9.80556 242.164 9.6492 242.809 9.6492H256.879C257.524 9.6492 258.115 9.80556 258.652 10.1186C259.19 10.4316 259.615 10.857 259.927 11.3946C260.24 11.9323 260.396 12.5241 260.396 13.1693V14.02H258.022V13.1693C258.022 12.8563 257.91 12.5876 257.685 12.3627C257.46 12.1377 257.191 12.0254 256.879 12.0254H242.809C242.496 12.0254 242.228 12.1377 242.003 12.3627C241.778 12.5876 241.666 12.8566 241.666 13.1693V27.2502C241.666 27.5632 241.778 27.8319 242.003 28.0568C242.228 28.2818 242.497 28.3941 242.809 28.3941H256.879C257.192 28.3941 257.46 28.2818 257.685 28.0568C257.91 27.8319 258.022 27.5629 258.022 27.2502V22.0287H252.804V19.6232H260.396V27.2502C260.396 27.8954 260.24 28.4872 259.927 29.0249C259.614 29.5629 259.189 29.9882 258.652 30.3009C258.115 30.614 257.523 30.7703 256.879 30.7703H242.809H242.809ZM264.078 30.7703V9.64889H283.336V12.0251H266.452V19.0069H280.024V21.4123H266.452V28.3941H283.336V30.7703H264.078ZM286.871 30.7703V9.64889H290.125L305.602 28.0713V9.64889H307.976V30.7703H304.722L289.245 12.3479V30.7703H286.871ZM315.028 30.7703C314.384 30.7703 313.792 30.614 313.255 30.3009C312.717 29.9879 312.293 29.5626 311.98 29.0249C311.667 28.4872 311.511 27.8954 311.511 27.2502V26.4288H313.885V27.2502C313.885 27.5632 313.998 27.8319 314.222 28.0568C314.447 28.2818 314.716 28.3941 315.028 28.3941H329.098C329.411 28.3941 329.679 28.2818 329.904 28.0568C330.129 27.8319 330.241 27.5629 330.241 27.2502V22.5273C330.241 22.2143 330.129 21.9503 329.904 21.7351C329.679 21.5199 329.411 21.4123 329.098 21.4123H315.028C314.384 21.4123 313.792 21.2509 313.255 20.9282C312.717 20.6054 312.293 20.18 311.98 19.6521C311.667 19.1242 311.511 18.5375 311.511 17.8919V13.169C311.511 12.5238 311.667 11.932 311.98 11.3943C312.293 10.8563 312.718 10.431 313.255 10.1183C313.793 9.80524 314.384 9.64889 315.028 9.64889H329.098C329.743 9.64889 330.334 9.80524 330.872 10.1183C331.409 10.4313 331.834 10.8567 332.147 11.3943C332.459 11.932 332.616 12.5238 332.616 13.169V13.9905H330.241V13.169C330.241 12.856 330.129 12.5873 329.904 12.3624C329.679 12.1374 329.411 12.0251 329.098 12.0251H315.028C314.716 12.0251 314.447 12.1374 314.222 12.3624C313.998 12.5873 313.885 12.8563 313.885 13.169V17.8919C313.885 18.2049 313.998 18.4689 314.222 18.6841C314.447 18.8993 314.716 19.0069 315.028 19.0069H329.098C329.743 19.0069 330.334 19.1683 330.872 19.491C331.409 19.8138 331.834 20.2392 332.147 20.7671C332.459 21.295 332.616 21.8817 332.616 22.5273V27.2502C332.616 27.8954 332.459 28.4872 332.147 29.0249C331.834 29.5629 331.409 29.9882 330.872 30.3009C330.334 30.614 329.743 30.7703 329.098 30.7703H315.028Z" fill="#0B223F"/>
<path d="M21.6988 4.68901C21.0073 7.04289 19.4102 8.29981 16.9032 8.45527C16.1486 8.50253 15.3715 8.55659 14.5763 8.62197L7.4426 8.61072C7.37722 8.61072 7.32542 8.66252 7.32315 8.72556L7.28707 10.3406L7.24886 15.7422C7.24886 15.8052 7.20598 15.8593 7.1452 15.8773C4.22365 16.695 1.93281 18.5961 0.245685 21.0221C0.205141 21.0806 0.11507 21.0514 0.11507 20.9815L0.0745273 11.0163C0.0632773 8.44394 0.061015 5.86705 0.0677357 3.28562C0.0699273 2.25844 0.308801 1.55568 1.42152 1.54896C6.21715 1.5242 10.2898 1.51521 13.6393 1.52193C16.7703 1.52865 19.4576 2.58513 21.6988 4.68894V4.68901Z" fill="#0B223F"/>
<path d="M21.5412 2.69514C22.5053 2.73116 26.4742 2.72436 33.4504 2.67717C35.2862 2.66366 36.6445 2.76951 37.5207 2.99699C43.3367 4.49039 47.2223 9.63747 46.1726 15.7824C45.6365 18.9291 44.0733 21.3753 41.4828 23.1256C41.3725 23.1999 40.8859 23.5085 40.0231 24.0536C39.9691 24.0875 39.9556 24.1617 39.9916 24.2135C42.4806 27.8334 45.0688 31.728 47.7605 35.902C47.88 36.0844 47.9093 36.2781 47.8507 36.4854C47.6795 37.0845 47.1615 37.3053 46.4744 37.2985C45.0034 37.2827 42.9852 37.276 40.4196 37.2805C39.9961 37.2828 39.638 37.0507 39.3474 36.589C37.0431 32.9242 34.7522 29.2638 32.3015 25.8173C32.2474 25.743 32.1596 25.698 32.0672 25.698L27.3279 25.7115C27.2648 25.7115 27.2221 25.7745 27.2445 25.8331C27.2603 25.8714 27.2558 29.2006 27.2311 35.8231C27.2265 36.7984 26.6927 37.2849 25.6295 37.2827C23.2305 37.2804 21.8092 37.2827 21.3677 37.294C20.3158 37.3188 19.7076 36.9291 19.7076 35.8704C19.7031 31.8609 19.6986 28.847 19.6941 26.8287C19.6941 26.7566 19.7346 26.6913 19.7977 26.6598C23.359 24.8803 25.8886 22.603 27.2964 18.7737C27.3257 18.6948 27.4023 18.6407 27.4879 18.6407C28.175 18.6339 30.5221 18.6181 34.5271 18.5889C35.2456 18.5844 35.8853 18.4425 36.4462 18.1609C40.1111 16.3184 40.289 11.383 36.0498 9.9144C35.5678 9.74777 34.8492 9.67114 33.8918 9.68466C31.592 9.71848 29.4049 9.71621 27.3303 9.68013C27.2176 9.67786 27.1163 9.61036 27.0735 9.50444C26.1387 7.22712 24.7038 5.34173 22.769 3.84834C22.3973 3.56 21.9693 3.2244 21.4872 2.8392C21.4264 2.7896 21.4624 2.69047 21.5413 2.69507L21.5412 2.69514Z" fill="#0B223F"/>
<path d="M69.7905 23.1669C69.7973 23.239 69.8964 23.2547 69.9235 23.1872C70.1306 22.6849 70.223 21.8604 70.3672 21.3086C71.935 15.3191 73.3765 9.37244 74.6943 3.46855C74.7641 3.15771 75.066 2.90765 75.6021 2.71852C75.656 2.69822 75.7124 2.69149 75.7687 2.69376C75.9376 2.70501 77.7554 2.69602 81.2243 2.67119C81.8258 2.66666 82.2267 2.78157 82.5466 3.27481C82.8461 3.73657 82.3686 4.77727 82.193 5.43283C78.8592 17.9096 76.0187 28.3117 73.6693 36.6348C73.55 37.0538 73.1941 37.2655 72.5971 37.2678C69.2048 37.2791 67.4816 37.2836 67.4276 37.2836C66.4208 37.2655 66.3059 36.5426 66.0535 35.5784C64.3146 28.9447 62.6162 22.6579 60.9561 16.7157C60.929 16.6166 60.7871 16.6166 60.7601 16.7179C59.4041 22.0565 57.7349 28.5956 55.7505 36.3352C55.5973 36.9322 55.185 37.2385 54.5161 37.2566C53.4507 37.2859 52.4798 37.2903 51.6013 37.2701C51.3557 37.2655 51.1305 37.1349 51.0021 36.9277C50.2914 35.7863 49.5563 34.6212 48.8035 33.443C50.1395 29.192 51.7543 24.6467 52.8515 20.3108C53.4529 17.9343 54.9035 12.3616 57.2011 3.59478C57.3656 2.97304 57.8476 2.66447 58.6518 2.66899C60.3614 2.68024 61.8391 2.68024 63.0892 2.67119C63.8236 2.66666 64.2695 3.02483 64.4295 3.7479C64.5646 4.36284 64.7065 4.93272 64.8552 5.4576C67.7204 15.5286 69.2814 21.0429 69.5404 22.0024C69.6891 22.5588 69.7724 22.9485 69.7904 23.167L69.7905 23.1669Z" fill="#0B223F"/>
<path fill-rule="evenodd" clip-rule="evenodd" d="M47.4553 30.8925C47.084 30.3168 47.105 30.3521 46.7872 29.8649C45.7311 28.2464 44.6418 26.6024 43.519 24.9323C43.3681 24.7093 43.2757 24.5066 43.2442 24.3264C43.2284 24.2453 43.2599 24.1642 43.323 24.1147C46.3887 21.6977 48.1098 18.596 48.4836 14.8094C48.7021 12.5974 48.4205 10.4981 47.6412 8.51362C46.6704 6.04484 44.9043 4.06937 42.6428 2.416C42.582 2.37092 42.6136 2.27179 42.6901 2.27406C43.3682 2.28538 44.2714 2.26281 45.3999 2.20648C46.3987 2.15659 47.0312 2.25535 47.3399 3.29561L48.9943 10.4393C49.3666 12.153 49.7975 14.1548 50.337 16.6167C50.4633 17.1931 50.6038 17.8085 51.0106 19.5235L47.4554 30.8924L47.4553 30.8925Z" fill="#0B223F"/>
<path d="M23.1497 7.64185C23.9739 8.59912 24.5829 9.60796 24.9764 10.6697C26.6613 15.1972 25.3571 19.9839 21.7349 23.1127C19.318 25.1985 16.491 26.2212 13.2497 26.1805C11.121 26.1513 9.22667 26.158 7.56657 26.2008C7.44939 26.2053 7.35705 26.3 7.35705 26.4171L7.37057 36.567C7.37057 36.5873 7.3683 36.6098 7.36377 36.6301C7.17683 37.3217 6.70149 37.6573 5.93569 37.6393C5.74422 37.6348 4.33863 37.6438 1.71892 37.6686C0.547538 37.6798 -0.0132761 37.3037 0.00023845 36.1458C0.0204738 34.4069 0.0294591 31.8187 0.0294591 28.3836C0.0294591 27.2686 0.563319 25.7144 1.19624 24.6107C2.91719 21.6103 6.13607 19.0649 9.77616 19.0739C11.0894 19.0762 12.4319 19.0604 13.8015 19.0266C16.4256 18.9613 18.48 17.2651 18.5386 14.5936C18.5631 13.5229 18.2256 12.5815 17.5265 11.7677C18.9436 11.6042 20.1437 11.1358 21.1272 10.363C22.006 9.67246 22.68 8.76523 23.1496 7.64192L23.1497 7.64185Z" fill="#0B223F"/>
</svg>
