<?xml version="1.0" encoding="UTF-8"?>
<!DOCTYPE svg PUBLIC "-//W3C//DTD SVG 1.1//EN" "http://www.w3.org/Graphics/SVG/1.1/DTD/svg11.dtd">
<!-- Creator: CorelDRAW -->
<svg xmlns="http://www.w3.org/2000/svg" xml:space="preserve" width="550mm" height="329.398mm" version="1.1" style="shape-rendering:geometricPrecision; text-rendering:geometricPrecision; image-rendering:optimizeQuality; fill-rule:evenodd; clip-rule:evenodd"
viewBox="0 0 11647.13 6975.53"
 xmlns:xlink="http://www.w3.org/1999/xlink"
 xmlns:xodm="http://www.corel.com/coreldraw/odm/2003">
 <defs>
  <style type="text/css">
   <![CDATA[
    .fil1 {fill:#0B223F;fill-rule:nonzero}
    .fil0 {fill:#ED6F00;fill-rule:nonzero}
   ]]>
  </style>
 </defs>
 <g id="Camada_x0020_1">
  <metadata id="CorelCorpID_0Corel-Layer"/>
  <g id="_1410415993568">
   <path class="fil0" d="M3115.29 446.54c-97.44,331.66 -322.47,508.76 -675.7,530.66 -106.32,6.66 -215.82,14.28 -327.86,23.48l-1005.13 -1.58c-9.21,0 -16.51,7.29 -16.82,16.19l-5.08 227.56 -5.39 761.07c0,8.89 -6.04,16.51 -14.6,19.05 -411.64,115.21 -734.42,383.07 -972.13,724.89 -5.72,8.26 -18.41,4.13 -18.41,-5.71l-5.72 -1404.09c-1.58,-362.44 -1.91,-725.53 -0.96,-1089.24 0.31,-144.73 33.97,-243.74 190.75,-244.7 675.7,-3.49 1249.52,-4.76 1721.47,-3.8 441.15,0.94 819.79,149.8 1135.58,446.23z"/>
   <path class="fil1" d="M3115.29 446.54c223.75,193.28 377.68,403.07 461.79,630 237.4,637.93 53.64,1312.36 -456.71,1753.2 -340.55,293.89 -738.86,437.98 -1195.56,432.26 -299.93,-4.12 -566.84,-3.17 -800.75,2.86 -16.51,0.63 -29.52,13.96 -29.52,30.46l1.91 1430.11c0,2.86 -0.32,6.03 -0.96,8.89 -26.34,97.43 -93.31,144.73 -201.22,142.18 -26.98,-0.63 -225.02,0.64 -594.13,4.13 -165.04,1.58 -244.07,-51.42 -242.16,-214.55 2.85,-245.01 4.12,-609.68 4.12,-1093.69 0,-157.11 75.22,-376.09 164.4,-531.61 242.48,-422.75 696.01,-781.39 1208.9,-780.12 185.03,0.32 374.19,-1.91 567.16,-6.67 369.74,-9.2 659.2,-248.19 667.45,-624.6 4.76,-207.88 -87.29,-381.17 -276.12,-520.5 -50.46,-37.14 -144.4,-73.31 -282.15,-108.23 112.03,-9.2 221.53,-16.82 327.85,-23.48 353.24,-21.91 578.26,-199 675.7,-530.66z"/>
   <path class="fil1" d="M3083.91 16.49c-5.4,-3.81 -2.54,-12.06 3.81,-12.06 413.79,0 1059.24,-0.63 1936.34,-1.9 324.31,-0.32 627.36,95.51 909.15,288.13 687.01,468.69 907.56,1335 510.9,2069.61 -161.83,299.24 -401.1,504.56 -696.22,659.73 -8.89,4.76 -11.42,15.87 -5.71,24.12 92.34,129.15 170.4,243.71 234.5,344.3 265.61,415.7 539.46,830.45 821.56,1244.25 51.72,76.15 67.91,130.74 2.54,196.43 -32.05,32.37 -71.08,48.55 -117.09,48.23 -261.8,-1.91 -562.94,-1.91 -903.44,0.32 -64.1,0.32 -117.09,-29.19 -158.67,-89.17 -60.61,-87.26 -112.97,-167.23 -156.44,-239.9 -293.21,-489.64 -561.99,-913.91 -806.01,-1272.49 -13.96,-20.63 -37.45,-33 -62.2,-33l-663.85 0c-8.89,0 -16.18,7.3 -16.5,16.51 -1.91,781.89 -1.27,1227.11 1.9,1335.64 4.44,160.89 -36.49,277.98 -209.12,279.88 -50.45,0.32 -227.52,1.91 -531.21,4.44 -293.84,2.22 -319.23,-68.87 -317.96,-327.8 2.54,-460.44 1.91,-840.6 -2.22,-1140.8 -0.32,-16.18 8.89,-31.1 23.16,-38.39 100.28,-51.73 190.71,-102.5 271.01,-152.64 358.9,-223.4 611.8,-550.25 762.85,-954.53 4.13,-10.47 13.97,-17.45 25.39,-17.77 345.57,-0.95 670.52,-1.91 974.19,-2.22 378.58,-0.64 707.33,-257.35 707.97,-644.82 0.31,-290.35 -191.67,-497.57 -462.03,-583.89 -65.69,-20.94 -161.2,-30.46 -286.55,-28.56 -294.48,4.76 -613.4,4.44 -956.43,-0.95 -13.33,-0.32 -25.07,-8.56 -30.15,-20.94 -118.68,-288.13 -300.2,-553.1 -544.22,-751.75 -91.71,-74.57 -178.34,-140.58 -259.26,-198.01z"/>
   <path class="fil1" d="M7594.73 2359.65l540.1 -1257.58 830.76 1656.77c3.5,6.98 13.02,6.98 16.51,0 441.4,-882.17 862.5,-1749.12 1263.29,-2600.82 34.59,-73.31 82.19,-121.22 143.43,-144.39 11.75,-4.44 24.12,-6.98 36.82,-7.3 2.85,-0.32 319.54,-1.91 950.39,-5.08 125.03,-0.63 238,47.6 238.32,180.24 2.86,1218.86 4.76,2707.45 5.08,4465.77 0,72.67 -9.21,124.4 -27.29,155.49 -27.29,46.65 -72.67,70.13 -136.46,70.45 -327.16,2.86 -539.14,5.08 -635.29,6.98 -123.13,2.54 -235.46,-31.41 -235.46,-160.56 -2.22,-1118.27 -4.76,-2014.41 -7.62,-2688.42 0,-29.5 -1.9,-59.97 -5.39,-91.71 -1.28,-10.79 -15.55,-13.96 -20.95,-4.44 -8.56,15.24 -56.8,105.68 -144.07,271.32 -92.97,176.12 -517.56,1034.81 -1273.44,2575.44 -45.69,92.98 -216.1,138.36 -292.89,61.56 -60.92,-60.92 -113.6,-187.22 -146.93,-252.28 -325.58,-634.34 -535.97,-1050.99 -630.85,-1250.27 -159.93,-335.74 -304.31,-630.22 -433.47,-883.76 -7.3,-13.96 -18.73,-46.32 -34.59,-97.42z"/>
   <path class="fil0" d="M6910.58 2014.07c127.89,-646.39 -51.1,-1317.23 -524.87,-1763.39 -97.42,-91.71 -180.87,-165.97 -249.74,-223.4 -5.07,-4.12 -2.21,-12.05 4.45,-12.38 340.49,-6.98 723.19,-10.16 1148.73,-9.21 155.81,0.33 296.07,-22.21 376.35,137.72 99.65,197.38 198.97,397.93 297.98,601.66l171.36 356.99 -540.1 1257.58c-32.04,20.94 -56.16,63.78 -72.97,128.19l-707.65 1558.4c-5.4,11.74 -21.58,12.69 -28.56,1.91l-394.44 -604.2 -203.41 -310.03c-3.17,-4.77 -1.91,-11.42 2.85,-14.91 367.16,-281.16 607.37,-649.57 720.03,-1104.95z"/>
   <path class="fil0" d="M639.93 6975.53l0 0 0 -1277.86 -639.93 0 0 -161.98 1439.84 0 0 161.98 -637.93 0 0 1277.86 -161.98 0zm981.09 0l0 -1439.84 1313.86 0 0 161.98 -1151.87 0 0 475.95 925.9 0 0 163.98 -925.9 0 0 475.95 1151.87 0 0 161.98 -1313.86 0zm1795 0c-43.99,0 -84.32,-10.66 -120.99,-32 -36.66,-21.33 -65.66,-50.33 -86.99,-86.99 -21.33,-36.66 -32,-76.99 -32,-120.99l0 -959.9c0,-43.99 10.66,-84.32 32,-120.99 21.33,-36.66 50.33,-65.66 86.99,-86.99 36.66,-21.33 76.99,-32 120.99,-32l1195.87 0 0 161.98 -1195.87 0c-21.33,0 -39.66,7.67 -54.99,23 -15.33,15.33 -23,33.66 -23,54.99l0 959.9c0,21.33 7.67,39.66 23,54.99 15.33,15.33 33.66,23 54.99,23l1195.87 0 0 161.98 -1195.87 0zm1431.04 0l0 -1437.84 1199.87 0c44,0 84.33,11 120.99,33 36.66,22 65.66,51 86.99,86.99 21.33,36 32,75.99 32,119.99l0 421.95c0,43.99 -10.67,83.99 -32,119.99 -21.33,36 -50.33,64.99 -86.99,86.99 -36.66,22 -76.99,33 -120.99,33l-1037.89 0 0 535.94 -161.98 0zm239.97 -699.92l959.89 0c21.33,0 39.66,-7.33 55,-22 15.33,-14.66 23,-32.66 23,-53.99l0 -421.95c0,-21.33 -7.67,-39.66 -23,-55 -15.33,-15.33 -33.66,-23 -55,-23l-959.89 0c-21.33,0 -39.66,7.67 -54.99,23 -15.33,15.33 -23,33.66 -23,55l0 421.95c0,21.33 7.67,39.33 23,53.99 15.33,14.66 33.66,22 54.99,22zm2584.92 699.92l-469.95 -559.94 211.98 0 471.95 557.94 0 2 -213.98 0zm-1215.87 0l0 -1437.84 1199.87 0c44,0 84.33,11 120.99,33 36.66,22 65.66,51 86.99,86.99 21.33,36 32,75.99 32,119.99l0 421.95c0,43.99 -10.67,83.99 -32,119.99 -21.33,36 -50.33,64.99 -86.99,86.99 -36.66,22 -76.99,33 -120.99,33l-1037.89 0 0 535.94 -161.98 0zm239.97 -699.92l959.89 0c21.33,0 39.66,-7.33 55,-22 15.33,-14.66 23,-32.66 23,-53.99l0 -421.95c0,-21.33 -7.67,-39.66 -23,-55 -15.33,-15.33 -33.66,-23 -55,-23l-959.89 0c-21.33,0 -39.66,7.67 -54.99,23 -15.33,15.33 -23,33.66 -23,55l0 421.95c0,21.33 7.67,39.33 23,53.99 15.33,14.66 33.66,22 54.99,22zm1457.04 699.92l0 -1439.84 163.98 0 0 1439.84 -163.98 0zm435.15 0l0 -1439.84 221.98 0 1055.89 1255.86 0 -1255.86 161.98 0 0 1439.84 -221.98 0 -1055.88 -1255.86 0 1255.86 -161.98 0zm2258.95 0l0 0 0 -1277.86 -639.93 0 0 -161.98 1439.84 0 0 161.98 -637.93 0 0 1277.86 -161.98 0z"/>
   <path class="fil0" d="M3115.29 446.54c-97.44,331.66 -322.47,508.76 -675.7,530.66 -106.32,6.66 -215.82,14.28 -327.86,23.48l-1005.13 -1.58c-9.21,0 -16.51,7.29 -16.82,16.19l-5.08 227.56 -5.39 761.07c0,8.89 -6.04,16.51 -14.6,19.05 -411.64,115.21 -734.42,383.07 -972.13,724.89 -5.72,8.26 -18.41,4.13 -18.41,-5.71l-5.72 -1404.09c-1.58,-362.44 -1.91,-725.53 -0.96,-1089.24 0.31,-144.73 33.97,-243.74 190.75,-244.7 675.7,-3.49 1249.52,-4.76 1721.47,-3.8 441.15,0.94 819.79,149.8 1135.58,446.23z"/>
   <path class="fil1" d="M3115.29 446.54c223.75,193.28 377.68,403.07 461.79,630 237.4,637.93 53.64,1312.36 -456.71,1753.2 -340.55,293.89 -738.86,437.98 -1195.56,432.26 -299.93,-4.12 -566.84,-3.17 -800.75,2.86 -16.51,0.63 -29.52,13.96 -29.52,30.46l1.91 1430.11c0,2.86 -0.32,6.03 -0.96,8.89 -26.34,97.43 -93.31,144.73 -201.22,142.18 -26.98,-0.63 -225.02,0.64 -594.13,4.13 -165.04,1.58 -244.07,-51.42 -242.16,-214.55 2.85,-245.01 4.12,-609.68 4.12,-1093.69 0,-157.11 75.22,-376.09 164.4,-531.61 242.48,-422.75 696.01,-781.39 1208.9,-780.12 185.03,0.32 374.19,-1.91 567.16,-6.67 369.74,-9.2 659.2,-248.19 667.45,-624.6 4.76,-207.88 -87.29,-381.17 -276.12,-520.5 -50.46,-37.14 -144.4,-73.31 -282.15,-108.23 112.03,-9.2 221.53,-16.82 327.85,-23.48 353.24,-21.91 578.26,-199 675.7,-530.66z"/>
   <path class="fil1" d="M3083.91 16.49c-5.4,-3.81 -2.54,-12.06 3.81,-12.06 413.79,0 1059.24,-0.63 1936.34,-1.9 324.31,-0.32 627.36,95.51 909.15,288.13 687.01,468.69 907.56,1335 510.9,2069.61 -161.83,299.24 -401.1,504.56 -696.22,659.73 -8.89,4.76 -11.42,15.87 -5.71,24.12 92.34,129.15 170.4,243.71 234.5,344.3 265.61,415.7 539.46,830.45 821.56,1244.25 51.72,76.15 67.91,130.74 2.54,196.43 -32.05,32.37 -71.08,48.55 -117.09,48.23 -261.8,-1.91 -562.94,-1.91 -903.44,0.32 -64.1,0.32 -117.09,-29.19 -158.67,-89.17 -60.61,-87.26 -112.97,-167.23 -156.44,-239.9 -293.21,-489.64 -561.99,-913.91 -806.01,-1272.49 -13.96,-20.63 -37.45,-33 -62.2,-33l-663.85 0c-8.89,0 -16.18,7.3 -16.5,16.51 -1.91,781.89 -1.27,1227.11 1.9,1335.64 4.44,160.89 -36.49,277.98 -209.12,279.88 -50.45,0.32 -227.52,1.91 -531.21,4.44 -293.84,2.22 -319.23,-68.87 -317.96,-327.8 2.54,-460.44 1.91,-840.6 -2.22,-1140.8 -0.32,-16.18 8.89,-31.1 23.16,-38.39 100.28,-51.73 190.71,-102.5 271.01,-152.64 358.9,-223.4 611.8,-550.25 762.85,-954.53 4.13,-10.47 13.97,-17.45 25.39,-17.77 345.57,-0.95 670.52,-1.91 974.19,-2.22 378.58,-0.64 707.33,-257.35 707.97,-644.82 0.31,-290.35 -191.67,-497.57 -462.03,-583.89 -65.69,-20.94 -161.2,-30.46 -286.55,-28.56 -294.48,4.76 -613.4,4.44 -956.43,-0.95 -13.33,-0.32 -25.07,-8.56 -30.15,-20.94 -118.68,-288.13 -300.2,-553.1 -544.22,-751.75 -91.71,-74.57 -178.34,-140.58 -259.26,-198.01z"/>
   <path class="fil1" d="M7594.73 2359.65l540.1 -1257.58 830.76 1656.77c3.5,6.98 13.02,6.98 16.51,0 441.4,-882.17 862.5,-1749.12 1263.29,-2600.82 34.59,-73.31 82.19,-121.22 143.43,-144.39 11.75,-4.44 24.12,-6.98 36.82,-7.3 2.85,-0.32 319.54,-1.91 950.39,-5.08 125.03,-0.63 238,47.6 238.32,180.24 2.86,1218.86 4.76,2707.45 5.08,4465.77 0,72.67 -9.21,124.4 -27.29,155.49 -27.29,46.65 -72.67,70.13 -136.46,70.45 -327.16,2.86 -539.14,5.08 -635.29,6.98 -123.13,2.54 -235.46,-31.41 -235.46,-160.56 -2.22,-1118.27 -4.76,-2014.41 -7.62,-2688.42 0,-29.5 -1.9,-59.97 -5.39,-91.71 -1.28,-10.79 -15.55,-13.96 -20.95,-4.44 -8.56,15.24 -56.8,105.68 -144.07,271.32 -92.97,176.12 -517.56,1034.81 -1273.44,2575.44 -45.69,92.98 -216.1,138.36 -292.89,61.56 -60.92,-60.92 -113.6,-187.22 -146.93,-252.28 -325.58,-634.34 -535.97,-1050.99 -630.85,-1250.27 -159.93,-335.74 -304.31,-630.22 -433.47,-883.76 -7.3,-13.96 -18.73,-46.32 -34.59,-97.42z"/>
   <path class="fil0" d="M6910.58 2014.07c127.89,-646.39 -51.1,-1317.23 -524.87,-1763.39 -97.42,-91.71 -180.87,-165.97 -249.74,-223.4 -5.07,-4.12 -2.21,-12.05 4.45,-12.38 340.49,-6.98 723.19,-10.16 1148.73,-9.21 155.81,0.33 296.07,-22.21 376.35,137.72 99.65,197.38 198.97,397.93 297.98,601.66l171.36 356.99 -540.1 1257.58c-32.04,20.94 -56.16,63.78 -72.97,128.19l-707.65 1558.4c-5.4,11.74 -21.58,12.69 -28.56,1.91l-394.44 -604.2 -203.41 -310.03c-3.17,-4.77 -1.91,-11.42 2.85,-14.91 367.16,-281.16 607.37,-649.57 720.03,-1104.95z"/>
   <path class="fil0" d="M639.93 6975.53l0 0 0 -1277.86 -639.93 0 0 -161.98 1439.84 0 0 161.98 -637.93 0 0 1277.86 -161.98 0zm981.09 0l0 -1439.84 1313.86 0 0 161.98 -1151.87 0 0 475.95 925.9 0 0 163.98 -925.9 0 0 475.95 1151.87 0 0 161.98 -1313.86 0zm1795 0c-43.99,0 -84.32,-10.66 -120.99,-32 -36.66,-21.33 -65.66,-50.33 -86.99,-86.99 -21.33,-36.66 -32,-76.99 -32,-120.99l0 -959.9c0,-43.99 10.66,-84.32 32,-120.99 21.33,-36.66 50.33,-65.66 86.99,-86.99 36.66,-21.33 76.99,-32 120.99,-32l1195.87 0 0 161.98 -1195.87 0c-21.33,0 -39.66,7.67 -54.99,23 -15.33,15.33 -23,33.66 -23,54.99l0 959.9c0,21.33 7.67,39.66 23,54.99 15.33,15.33 33.66,23 54.99,23l1195.87 0 0 161.98 -1195.87 0zm1431.04 0l0 -1437.84 1199.87 0c44,0 84.33,11 120.99,33 36.66,22 65.66,51 86.99,86.99 21.33,36 32,75.99 32,119.99l0 421.95c0,43.99 -10.67,83.99 -32,119.99 -21.33,36 -50.33,64.99 -86.99,86.99 -36.66,22 -76.99,33 -120.99,33l-1037.89 0 0 535.94 -161.98 0zm239.97 -699.92l959.89 0c21.33,0 39.66,-7.33 55,-22 15.33,-14.66 23,-32.66 23,-53.99l0 -421.95c0,-21.33 -7.67,-39.66 -23,-55 -15.33,-15.33 -33.66,-23 -55,-23l-959.89 0c-21.33,0 -39.66,7.67 -54.99,23 -15.33,15.33 -23,33.66 -23,55l0 421.95c0,21.33 7.67,39.33 23,53.99 15.33,14.66 33.66,22 54.99,22zm2584.92 699.92l-469.95 -559.94 211.98 0 471.95 557.94 0 2 -213.98 0zm-1215.87 0l0 -1437.84 1199.87 0c44,0 84.33,11 120.99,33 36.66,22 65.66,51 86.99,86.99 21.33,36 32,75.99 32,119.99l0 421.95c0,43.99 -10.67,83.99 -32,119.99 -21.33,36 -50.33,64.99 -86.99,86.99 -36.66,22 -76.99,33 -120.99,33l-1037.89 0 0 535.94 -161.98 0zm239.97 -699.92l959.89 0c21.33,0 39.66,-7.33 55,-22 15.33,-14.66 23,-32.66 23,-53.99l0 -421.95c0,-21.33 -7.67,-39.66 -23,-55 -15.33,-15.33 -33.66,-23 -55,-23l-959.89 0c-21.33,0 -39.66,7.67 -54.99,23 -15.33,15.33 -23,33.66 -23,55l0 421.95c0,21.33 7.67,39.33 23,53.99 15.33,14.66 33.66,22 54.99,22zm1457.04 699.92l0 -1439.84 163.98 0 0 1439.84 -163.98 0zm435.15 0l0 -1439.84 221.98 0 1055.89 1255.86 0 -1255.86 161.98 0 0 1439.84 -221.98 0 -1055.88 -1255.86 0 1255.86 -161.98 0zm2258.95 0l0 0 0 -1277.86 -639.93 0 0 -161.98 1439.84 0 0 161.98 -637.93 0 0 1277.86 -161.98 0z"/>
  </g>
 </g>
</svg>
