<svg width="39" height="40" viewBox="0 0 39 40" fill="none" xmlns="http://www.w3.org/2000/svg">
<path d="M26.9601 22.9297C26.6401 22.7663 24.5601 21.7861 24.2401 21.6227C23.9201 21.4593 23.6001 21.4593 23.2801 21.7861C22.9601 22.1128 22.3201 23.0931 22.0001 23.4199C21.8401 23.7466 21.5201 23.7466 21.2001 23.5832C20.0801 23.0931 18.9601 22.4396 18.0001 21.6227C17.2001 20.8058 16.4001 19.8255 15.7601 18.8452C15.6001 18.5184 15.7601 18.1917 15.9201 18.0283C16.0801 17.8649 16.2401 17.5382 16.5601 17.3748C16.7201 17.2114 16.8801 16.8846 16.8801 16.7213C17.0401 16.5579 17.0401 16.2311 16.8801 16.0677C16.7201 15.9044 15.9201 13.9438 15.6001 13.1269C15.4401 11.9832 15.1201 11.9832 14.8001 11.9832C14.6401 11.9832 14.3201 11.9832 14.0001 11.9832C13.6801 11.9832 13.2001 12.31 13.0401 12.4734C12.0801 13.4536 11.6001 14.5973 11.6001 15.9044C11.7601 17.3748 12.2401 18.8452 13.2001 20.1522C14.9601 22.7663 17.2001 24.8903 19.9201 26.1973C20.7201 26.5241 21.3601 26.8509 22.1601 27.0142C22.9601 27.341 23.7601 27.341 24.7201 27.1776C25.8401 27.0142 26.8001 26.1973 27.4401 25.217C27.7601 24.5635 27.7601 23.91 27.6001 23.2565C27.6001 23.2565 27.2801 23.0931 26.9601 22.9297ZM30.9601 8.06209C24.7201 1.69024 14.6401 1.69024 8.40009 8.06209C3.2801 13.2903 2.3201 21.2959 5.8401 27.6678L3.6001 36.0002L12.0801 33.7128C14.4801 35.0199 17.0401 35.6734 19.6001 35.6734C28.4001 35.6734 35.4401 28.4847 35.4401 19.4987C35.6001 15.2508 33.8401 11.1663 30.9601 8.06209ZM26.6401 30.9354C24.5601 32.2424 22.1601 33.0593 19.6001 33.0593C17.2001 33.0593 14.9601 32.4058 12.8801 31.2621L12.4001 30.9354L7.44009 32.2424L8.72009 27.341L8.40009 26.8509C4.5601 20.3156 6.48009 12.1466 12.7201 8.06209C18.9601 3.97757 26.9601 6.10152 30.8001 12.31C34.6401 18.6818 32.8801 27.0142 26.6401 30.9354Z" fill="#0B223F"/>
</svg>
